<?xml version="1.0" standalone="no"?>
<!DOCTYPE svg PUBLIC "-//W3C//DTD SVG 20010904//EN"
 "http://www.w3.org/TR/2001/REC-SVG-20010904/DTD/svg10.dtd">
<svg version="1.0" xmlns="http://www.w3.org/2000/svg"
 width="512.000000pt" height="512.000000pt" viewBox="0 0 512.000000 512.000000"
 preserveAspectRatio="xMidYMid meet">
<metadata>
Created by potrace 1.14, written by Peter Selinger 2001-2017
</metadata>
<g transform="translate(0.000000,512.000000) scale(0.100000,-0.100000)"
fill="#000000" stroke="none">
<path d="M2261 4804 c-30 -21 -51 -71 -44 -107 3 -15 19 -38 35 -52 50 -43
119 -27 150 33 43 87 -62 181 -141 126z"/>
<path d="M2657 4769 c-28 -16 -49 -68 -43 -104 10 -52 41 -71 156 -99 58 -13
131 -34 163 -46 51 -19 69 -21 135 -15 141 14 218 7 282 -25 42 -22 68 -49
103 -112 15 -26 37 -50 50 -54 12 -4 65 -8 117 -9 112 -3 166 -10 233 -30 168
-50 280 -159 312 -302 6 -32 6 -33 -27 -33 -101 0 -256 -67 -332 -144 -57 -59
-107 -142 -101 -171 2 -11 4 -25 4 -31 1 -6 13 -23 27 -38 46 -45 125 -32 159
27 25 44 74 96 109 114 95 50 229 59 311 23 120 -54 180 -116 189 -193 7 -59
19 -82 54 -105 70 -45 111 -120 112 -203 0 -65 -7 -74 -67 -83 -79 -12 -195
-74 -246 -131 -75 -84 -122 -198 -115 -277 7 -67 52 -105 112 -94 45 9 73 42
86 104 17 79 64 141 130 173 91 45 109 45 162 -5 130 -120 188 -286 182 -517
-2 -68 -5 -135 -8 -149 -2 -14 -8 -43 -11 -65 -11 -65 -52 -216 -78 -288 -64
-175 -206 -329 -342 -369 -81 -23 -89 -22 -174 37 -136 92 -386 198 -519 220
-94 15 -158 -57 -121 -139 14 -30 44 -45 188 -90 129 -41 298 -121 354 -167
35 -29 37 -34 32 -73 -3 -22 -21 -74 -41 -113 -37 -76 -100 -142 -184 -189
-48 -27 -159 -69 -216 -80 -49 -10 -287 -11 -336 -2 -93 19 -135 30 -207 58
-107 41 -125 44 -158 27 -49 -26 -57 -54 -57 -200 0 -73 3 -160 8 -193 l7 -62
-73 -12 c-40 -7 -82 -14 -93 -16 -10 -2 -36 -6 -57 -9 -43 -7 -31 -32 -92 211
-20 77 -52 190 -71 250 -48 146 -161 370 -235 469 -57 76 -69 97 -52 93 4 -1
32 4 62 11 30 7 66 15 80 17 14 2 59 11 100 19 81 16 93 18 250 36 113 12 163
33 174 72 11 42 6 72 -18 102 -22 27 -30 30 -88 31 -116 2 -449 -55 -708 -121
-129 -33 -141 -34 -335 -42 -139 -5 -186 -3 -255 11 -220 45 -362 141 -437
295 -33 68 -36 81 -38 179 -3 106 -4 107 -36 136 -30 26 -36 28 -83 21 -77
-12 -123 -13 -169 -5 -23 5 -58 11 -77 14 -162 26 -335 107 -411 194 -57 65
-78 125 -81 235 l-3 98 -50 44 c-48 41 -50 45 -49 93 0 40 8 63 34 104 38 60
40 88 17 203 -12 61 -15 181 -4 225 32 139 124 241 267 296 64 25 87 49 100
107 16 76 44 131 86 171 54 51 107 66 212 61 152 -9 169 -4 191 57 23 59 33
75 69 113 63 64 169 106 308 120 61 6 62 6 87 -27 37 -49 75 -130 92 -195 21
-81 18 -157 -8 -233 -17 -49 -21 -73 -15 -97 16 -61 82 -89 143 -61 33 15 73
98 88 184 11 63 14 68 47 82 19 9 66 16 105 16 83 1 120 -19 160 -88 42 -72
114 -88 166 -37 36 36 38 80 7 137 -82 149 -238 219 -413 185 -27 -5 -58 -13
-68 -16 -13 -6 -20 0 -29 26 -6 19 -29 69 -51 113 -46 91 -50 83 73 122 119
38 134 49 146 112 6 32 -21 79 -56 97 -28 14 -37 14 -97 -1 -65 -16 -204 -68
-261 -98 -15 -8 -68 -17 -118 -20 -49 -4 -105 -10 -122 -16 -18 -5 -33 -9 -35
-8 -15 2 -107 -32 -160 -60 -80 -41 -152 -103 -187 -161 -25 -40 -25 -40 -87
-41 -215 -1 -381 -117 -447 -311 -17 -50 -24 -58 -67 -77 -160 -74 -286 -234
-323 -413 -16 -79 -15 -239 3 -313 9 -35 6 -48 -22 -105 -27 -58 -31 -76 -31
-151 0 -92 20 -152 71 -206 18 -19 26 -41 29 -75 15 -189 99 -328 264 -435
134 -86 301 -139 535 -170 58 -7 58 -7 62 -37 15 -111 74 -239 149 -325 79
-91 216 -176 354 -220 141 -46 221 -55 419 -49 102 3 199 8 216 12 26 5 35 0
81 -50 109 -117 211 -292 274 -470 36 -102 45 -137 101 -357 21 -86 48 -182
60 -213 29 -77 71 -101 149 -84 19 4 53 10 75 14 46 7 59 9 180 29 50 9 108
18 129 22 100 15 138 62 117 141 -6 21 -12 49 -15 63 -2 14 -7 41 -10 60 -4
19 -8 59 -10 88 -4 46 -2 52 12 48 25 -8 132 -34 167 -41 65 -14 275 -17 358
-6 99 13 215 49 302 93 188 94 315 253 355 444 l11 50 59 12 c168 35 346 187
458 392 55 101 126 345 149 511 9 68 10 300 1 360 -26 176 -111 352 -220 457
l-34 32 11 67 c23 141 -18 279 -113 385 -30 33 -53 70 -61 98 -29 104 -148
222 -277 276 -24 10 -35 22 -39 42 -34 177 -73 260 -169 357 -68 68 -140 116
-216 144 -19 7 -44 17 -55 21 -25 11 -118 32 -159 36 -17 2 -62 6 -100 9 -60
5 -72 10 -90 33 -59 77 -156 137 -261 161 -64 15 -175 19 -244 10 -44 -6 -69
-3 -130 16 -163 52 -257 66 -294 44z"/>
<path d="M2750 4330 c-80 -12 -110 -36 -122 -100 -5 -30 24 -79 57 -94 25 -12
44 -14 78 -7 57 10 137 4 179 -14 38 -16 94 -68 112 -104 7 -14 21 -50 31 -79
25 -78 85 -108 148 -76 71 37 64 138 -19 275 -54 90 -137 153 -244 187 -44 14
-161 20 -220 12z"/>
<path d="M783 3755 c-48 -21 -68 -72 -51 -130 5 -16 9 -59 10 -95 1 -51 -5
-76 -25 -115 -32 -64 -59 -88 -148 -134 -61 -32 -74 -43 -85 -73 -17 -50 11
-110 59 -125 57 -17 171 30 249 104 l36 35 67 -33 c116 -57 261 -51 401 18 31
15 64 38 75 51 31 40 21 108 -20 139 -35 26 -72 24 -140 -8 -89 -42 -178 -48
-236 -15 -28 16 -39 28 -37 42 8 52 3 185 -7 237 -11 51 -45 105 -69 108 -4 0
-16 2 -27 4 -11 2 -34 -2 -52 -10z"/>
<path d="M2381 3468 c-39 -25 -54 -69 -41 -122 28 -107 99 -245 166 -320 40
-45 41 -54 12 -92 -33 -43 -56 -60 -126 -94 -69 -35 -95 -66 -94 -110 1 -41
18 -67 54 -86 39 -20 73 -14 158 28 66 34 183 141 195 179 5 14 12 18 23 14
109 -45 293 -64 345 -36 45 24 58 85 29 138 -18 33 -43 43 -123 48 -39 3 -90
10 -113 16 -151 41 -275 172 -326 344 -19 64 -31 83 -63 96 -44 19 -62 18 -96
-3z"/>
<path d="M3260 3413 c-30 -11 -60 -47 -66 -78 -8 -43 16 -87 60 -114 50 -31
140 -132 166 -187 64 -132 59 -254 -17 -413 -31 -64 -35 -79 -27 -110 17 -67
94 -96 154 -59 17 11 53 76 93 168 39 91 53 244 31 350 -27 131 -85 231 -193
337 -91 89 -155 123 -201 106z"/>
<path d="M1503 2956 c-24 -21 -28 -32 -33 -102 -7 -96 -34 -154 -101 -220
l-48 -47 -68 22 c-82 27 -229 38 -291 22 -66 -18 -93 -75 -67 -137 19 -46 56
-60 149 -57 160 4 263 -58 296 -177 5 -19 11 -65 14 -101 2 -38 11 -77 20 -92
43 -64 141 -55 171 16 26 63 3 225 -45 314 l-28 53 37 37 c42 44 88 104 113
149 42 75 62 237 37 287 -31 60 -106 76 -156 33z"/>
<path d="M3930 2529 c-66 -27 -77 -95 -29 -170 39 -62 139 -155 196 -182 l44
-21 -8 -46 c-12 -74 -7 -191 11 -252 17 -55 79 -152 124 -192 14 -12 38 -19
67 -20 53 -1 93 31 101 82 6 36 -6 61 -46 104 -57 60 -76 137 -58 241 l10 55
51 12 c69 17 188 75 231 114 77 68 35 176 -69 176 -11 0 -43 -14 -71 -32 -64
-41 -143 -68 -197 -68 -59 0 -139 42 -185 97 -20 24 -48 58 -62 74 -28 32 -72
44 -110 28z"/>
<path d="M2727 2396 c-18 -18 -45 -52 -62 -74 -89 -118 -253 -162 -431 -114
-61 16 -76 17 -102 7 -71 -30 -84 -125 -23 -172 41 -32 166 -56 277 -55 156 1
283 52 390 157 127 125 154 235 67 274 -45 21 -83 13 -116 -23z"/>
<path d="M3315 1831 c-99 -41 -70 -191 37 -191 108 0 137 154 36 189 -36 13
-45 13 -73 2z"/>
</g>
</svg>
